<?xml version="1.0" encoding="utf-8"?>
<!-- Generator: Adobe Illustrator 25.2.2, SVG Export Plug-In . SVG Version: 6.00 Build 0)  -->
<svg version="1.1" id="Layer_1" xmlns="http://www.w3.org/2000/svg" xmlns:xlink="http://www.w3.org/1999/xlink" x="0px" y="0px"
	 viewBox="0 0 120 139.5" style="enable-background:new 0 0 120 139.5;" xml:space="preserve">
<style type="text/css">
	.st0{fill:#00253D;}
	.st1{fill:#FFFFFF;}
	.st2{fill:#99AECC;}
	.st3{fill:#98C000;}
	.st4{fill:#FFFFFF;stroke:#000000;stroke-width:0.25;stroke-miterlimit:10;}
	.st5{fill:#99AECC;stroke:#000000;stroke-width:0.25;stroke-miterlimit:10;}
	.st6{fill:#98C000;stroke:#000000;stroke-width:0.25;stroke-miterlimit:10;}
</style>
<rect x="-485" y="394" class="st0" width="768" height="768"/>
<g>
	<g>
		<path class="st1" d="M-309.3,876.7c11-3.9,19.3-11.4,25.7-21.6c7.7-12.7,16.5-25.3,26.1-37.8c9.4-11.8,21.7-22.4,37.5-31.6
			c-8.9,14.4-16.3,28.3-21.5,41.5c-3.6,9.2-7.7,17.1-12.1,23.3c-10.5,16.1-22.4,24.9-35.8,26.6
			C-299.3,877.9-306.3,877.9-309.3,876.7z"/>
		<path class="st2" d="M-248.8,855.4c4.9-5.2,9-12.1,12.3-20.9c14.2,10.7,20.4,26.6,21.3,46.1C-224,870.2-235,861.6-248.8,855.4z"/>
		<path class="st2" d="M-279.4,834.5c3.5-7,8.5-13.9,15.3-20.5c-12.6-13.5-21.8-27.2-1.4-42.8C-299.6,784.2-303.2,805.6-279.4,834.5
			z"/>
		<path class="st3" d="M-257.6,774.9c-9.4,5.2-13.1,12-8.9,21c0.1,0.1,0.1,0.2,0.2,0.4c3.6,6.3,8.4,6.2,14.3,1
			c11.5-10.5,22.2-17.8,32.1-21.2C-231.7,770-244.3,769.5-257.6,774.9z"/>
	</g>
	<g>
		<g>
			<path class="st1" d="M-188.9,835.7c0,8.4-1.8,14.5-12.1,14.5c-2,0-3.8-0.2-4.9-0.4v-7c0.9,0.1,2.1,0.2,3.5,0.2
				c4.4,0,5.1-2.3,5.1-6.8v-40.9h8.4V835.7z"/>
			<path class="st1" d="M-152.4,837.7c0,5.7,0,9.7,0.1,11.8h-7.9c-0.2-1.2-0.3-3-0.4-4.8c-1.7,3.9-4.8,5.5-9.4,5.5
				c-5.5,0-10.3-2.6-10.3-12.3v-29.5h8.3V836c0,4.5,1.1,7,4.9,7c3.9,0,6.3-2.2,6.3-9.5v-25.1h8.3L-152.4,837.7L-152.4,837.7z"/>
			<path class="st1" d="M-143.6,792.6h8.3v20.3c1.4-2.8,4.1-5.3,9.3-5.3c8.2,0,12,7.1,12,20.2c0,12.9-3.3,22.3-13.2,22.3
				c-5.3,0-7.3-2.6-8.4-5c0,1.1-0.1,2.9-0.2,4.3h-7.9c0.1-2.5,0.1-7,0.1-11.5L-143.6,792.6L-143.6,792.6z M-122.3,828
				c0-8.7-1.6-13.2-6.4-13.2c-5.2,0-6.9,4.1-6.9,14.3c0,9.7,1.4,14,6.5,14C-124.3,843.1-122.3,838.5-122.3,828z"/>
			<path class="st1" d="M-107.1,808.3h8.3v41.1h-8.3V808.3z M-107.1,792.6h8.3v9.1h-8.3V792.6z"/>
			<path class="st1" d="M-89.9,849.5v-56.9h8.3v56.9H-89.9z"/>
			<path class="st1" d="M-66.4,830.9c0,6.2,0.9,12.4,6.6,12.4c5.3,0,6-4.7,6.2-6.1h8c-0.1,1.2-1.1,13-14.3,13
				c-12.9,0-14.7-11.2-14.7-21.5c0-13,4.8-21.1,15-21.1c11.6,0,14.4,8.9,14.4,19.5c0,1.2-0.1,3-0.1,3.8L-66.4,830.9L-66.4,830.9z
				 M-53.5,824.8c0-5-0.8-10.3-6.2-10.3c-6.1,0-6.5,7.3-6.5,10.3H-53.5z"/>
			<path class="st1" d="M-32.2,830.9c0,6.2,0.9,12.4,6.6,12.4c5.3,0,6-4.7,6.2-6.1h8c-0.1,1.2-1.1,13-14.3,13
				c-12.9,0-14.7-11.2-14.7-21.5c0-13,4.8-21.1,15-21.1c11.6,0,14.4,8.9,14.4,19.5c0,1.2-0.1,3-0.1,3.8L-32.2,830.9L-32.2,830.9z
				 M-19.4,824.8c0-5-0.8-10.3-6.2-10.3c-6.1,0-6.5,7.3-6.5,10.3H-19.4z"/>
			<path class="st1" d="M11.7,795h4.6v23.5h19.3V795h4.6v54.4h-4.6v-26.7H16.3v26.7h-4.6C11.7,849.4,11.7,795,11.7,795z"/>
			<path class="st1" d="M73.1,843c0,2.7,0.2,5.4,0.3,6.5h-4.1c-0.2-0.9-0.4-3.2-0.4-4.9c-1.5,3.6-4.6,5.6-9.7,5.6
				c-7.7,0-10.4-6-10.4-11.5c0-7,4.7-12.8,15.4-12.8c2.1,0,3.3,0,4.5,0.1v-5.7c0-3.4-0.7-7.9-6.7-7.9c-6.7,0-7,4.9-7.3,7.6h-4.4
				c0.2-5.7,2.9-11.5,11.8-11.5c7.5,0,11,3.7,11,11.1C73.1,819.6,73.1,843,73.1,843z M68.8,829.9c-1-0.2-2.2-0.2-4.4-0.2
				c-7.9,0-11.2,3.8-11.2,8.7c0,4.2,2.2,7.8,6.9,7.8c6.3,0,8.6-4.4,8.6-13.8L68.8,829.9L68.8,829.9z"/>
			<path class="st1" d="M83.1,849.5v-57h4.5v57H83.1z"/>
			<path class="st1" d="M97.7,849.5v-57h4.5v57H97.7z"/>
		</g>
	</g>
</g>
<g>
	<g>
		<path class="st1" d="M-280.7,666.6c11-3.9,19.3-11.4,25.7-21.6c7.7-12.7,16.5-25.3,26.1-37.8c9.4-11.8,21.7-22.4,37.5-31.6
			c-8.9,14.4-16.3,28.3-21.5,41.5c-3.6,9.2-7.7,17.1-12.1,23.3c-10.5,16.1-22.4,24.9-35.8,26.6
			C-270.7,667.8-277.7,667.8-280.7,666.6z"/>
		<path class="st2" d="M-220.1,645.3c4.9-5.2,9-12.1,12.3-20.9c14.2,10.7,20.4,26.6,21.3,46.1C-195.4,660.1-206.4,651.5-220.1,645.3
			z"/>
		<path class="st2" d="M-250.8,624.4c3.5-7,8.5-13.9,15.3-20.5c-12.6-13.5-21.8-27.2-1.4-42.8C-271,574.2-274.5,595.6-250.8,624.4z"
			/>
		<path class="st3" d="M-229,564.8c-9.4,5.2-13.1,12-8.9,21c0.1,0.1,0.1,0.2,0.2,0.4c3.6,6.3,8.4,6.2,14.3,1
			c11.5-10.5,22.2-17.8,32.1-21.2C-203.1,559.9-215.6,559.5-229,564.8z"/>
	</g>
	<g>
		<g>
			<g>
				<g>
					<path class="st1" d="M-156.1,600c0,6.7-1.6,11.2-9.7,11.2c-1.6,0-3-0.2-3.9-0.3v-6c0.7,0.1,1.6,0.2,2.6,0.2
						c3.2,0,3.7-1.5,3.7-4.6v-30.3h7.3L-156.1,600L-156.1,600z"/>
					<path class="st1" d="M-128.1,601.6c0,4.5,0,7.5,0.1,9.1h-6.8c-0.2-0.9-0.2-2.3-0.3-3.4c-1.4,2.9-3.6,3.9-6.9,3.9
						c-4.4,0-7.8-2.2-7.8-9.3v-22.3h7.2v20.7c0,3.1,0.6,4.8,3.2,4.8c2.7,0,4.1-1.5,4.1-6.4v-19.1h7.2V601.6z"/>
					<path class="st1" d="M-121.9,568.1h7.2v14.7c1.1-1.9,3.1-3.6,6.9-3.6c6.4,0,9.1,5.6,9.1,15.2c0,9.8-2.4,16.9-10,16.9
						c-4,0-5.3-2-6.2-3.5c0,0.7-0.1,2.1-0.1,3h-6.8c0.1-2.1,0.1-5.6,0.1-8.7v-34H-121.9z M-105.9,594.5c0-6-0.9-9.3-4.4-9.3
						s-4.6,2.5-4.6,10.1c0,7.3,1,9.9,4.4,9.9C-107.2,605.2-105.9,602-105.9,594.5z"/>
					<path class="st1" d="M-93.9,579.6h7.2v31.1h-7.2V579.6z M-93.9,568.1h7.2v7.1h-7.2V568.1z"/>
					<path class="st1" d="M-80.3,610.7v-42.6h7.2v42.6H-80.3z"/>
					<path class="st1" d="M-61.1,597c0,3.9,0.5,8.3,4.5,8.3c3.6,0,4-3,4.2-4.1h6.9c-0.1,1-0.8,10-11.1,10
						c-10.1,0-11.5-8.5-11.5-16.3c0-9.8,3.7-15.9,11.6-15.9c9,0,11.2,6.7,11.2,14.8c0,1.1-0.1,2.5-0.1,3.1h-15.7V597z M-52.5,591.8
						c0-3-0.4-6.9-4.2-6.9c-4.1,0-4.4,4.6-4.4,6.9H-52.5z"/>
					<path class="st1" d="M-34.8,597c0,3.9,0.5,8.3,4.5,8.3c3.6,0,4-3,4.2-4.1h6.9c-0.1,1-0.8,10-11.1,10
						c-10.1,0-11.5-8.5-11.5-16.3c0-9.8,3.7-15.9,11.6-15.9c9,0,11.2,6.7,11.2,14.8c0,1.1-0.1,2.5-0.1,3.1h-15.7V597z M-26.2,591.8
						c0-3-0.4-6.9-4.2-6.9c-4.1,0-4.4,4.6-4.4,6.9H-26.2z"/>
					<path class="st1" d="M-2.8,570.1h7.3v16h9.8v-16h7.3v40.6h-7.3v-18.2H4.5v18.2h-7.3C-2.8,610.7-2.8,570.1-2.8,570.1z"/>
					<path class="st1" d="M48.7,603.9c0,1.5,0.1,5.4,0.2,6.8h-6.5c-0.1-0.6-0.3-2-0.3-2.9c-1.2,2-3.2,3.4-7,3.4
						c-6,0-8.3-4.8-8.3-9.2c0-6.4,4.4-10.2,12.2-10.2c1,0,1.8,0,2.5,0.1v-3.4c0-1.8-0.2-3.9-3.3-3.9c-3,0-3.3,2-3.5,4H28
						c0.1-4.6,2.3-9.5,10.6-9.5c6.7,0,10.1,3,10.1,9C48.7,588.1,48.7,603.9,48.7,603.9z M41.8,597.1c-0.7-0.1-1.4-0.1-2.3-0.1
						c-4.1,0-5.6,1.9-5.6,4.4c0,1.9,0.9,4,3.6,4c3.7,0,4.3-2.7,4.3-7.3V597.1z"/>
					<path class="st1" d="M55.1,610.7v-42.6h7.2v42.6H55.1z"/>
					<path class="st1" d="M68.6,610.7v-42.6h7.2v42.6H68.6z"/>
				</g>
			</g>
		</g>
		<g>
			<g>
				<g>
					<path class="st1" d="M-157.6,618.3h-12.5v-3.5h29v3.5h-12.5v38h-4V618.3z"/>
					<path class="st1" d="M-136.3,636.4c0-4.8-0.1-9-0.1-10.3h3.8c0.1,1.5,0.1,3.4,0.1,6.4c1.6-4.2,5.2-6.9,10-7v4.1
						c-7,0.4-9.9,5.1-9.9,11.4v15.3h-3.8v-19.9H-136.3z"/>
					<path class="st1" d="M-95.4,647.9c0,3.6,0.1,7,0.1,8.4H-99c-0.2-0.8-0.2-2.9-0.2-5.2c-1.2,3.3-4.4,5.8-9.1,5.8
						c-4.2,0-9.2-1.7-9.2-10.3v-20.4h3.8v19.6c0,4.2,1.3,7.7,6.4,7.7c4.7,0,8-3.2,8-10.4v-16.9h3.9L-95.4,647.9L-95.4,647.9z"/>
					<path class="st1" d="M-85.3,647.8c0.7,3.8,3.5,5.9,7.4,5.9c4.7,0,6.4-2.7,6.4-5.5c0-3-2-4.7-7.3-6.1c-7.1-1.9-9.1-4.5-9.1-8.5
						c0-4.1,2.9-8.1,9.6-8.1c7,0,9.6,4,10.1,8.5H-72c-0.6-2.8-2-5.4-6.5-5.4c-3.9,0-5.6,1.9-5.6,4.7c0,2.5,1.1,3.9,6.5,5.3
						c7.5,2,9.9,4.5,9.9,9.3c0,5.4-4.2,8.9-10.4,8.9c-5.8,0-10.5-2.8-11.1-9.1L-85.3,647.8L-85.3,647.8z"/>
					<path class="st1" d="M-65.3,626.1h5.1v-9h3.8v9h6.4v3.3h-6.4v20.2c0,2.7,0.7,3.8,3.3,3.8c0.9,0,1.9-0.1,2.5-0.2v3
						c-1,0.4-2.6,0.5-3.6,0.5c-3.8,0-6-1.4-6-6.2v-21.1h-5.1V626.1z"/>
				</g>
			</g>
		</g>
	</g>
</g>
<g>
	<g>
		<path class="st1" d="M-448.1,272.6c11-3.9,19.3-11.4,25.7-21.6c7.7-12.7,16.5-25.3,26.1-37.8c9.4-11.8,21.7-22.4,37.5-31.6
			c-8.9,14.4-16.3,28.3-21.5,41.5c-3.6,9.2-7.7,17.1-12.1,23.3c-10.5,16.1-22.4,24.9-35.8,26.6
			C-438.1,273.8-445.1,273.8-448.1,272.6z"/>
		<path class="st2" d="M-387.5,251.3c4.9-5.2,9-12.1,12.3-20.9c14.2,10.7,20.4,26.6,21.3,46.1C-362.8,266.1-373.8,257.5-387.5,251.3
			z"/>
		<path class="st2" d="M-418.2,230.5c3.5-7,8.5-13.9,15.3-20.5c-12.6-13.5-21.8-27.2-1.4-42.8C-438.4,180.2-441.9,201.6-418.2,230.5
			z"/>
		<path class="st3" d="M-396.4,170.9c-9.4,5.2-13.1,12-8.9,21c0.1,0.1,0.1,0.2,0.2,0.4c3.6,6.3,8.4,6.2,14.3,1
			c11.5-10.5,22.2-17.8,32.1-21.2C-370.5,165.9-383,165.5-396.4,170.9z"/>
	</g>
	<g>
		<g>
			<path class="st1" d="M-327.7,231.6c0,8.4-1.8,14.5-12.1,14.5c-2,0-3.8-0.2-4.9-0.4v-7c0.9,0.1,2.1,0.2,3.5,0.2
				c4.4,0,5.1-2.3,5.1-6.8v-40.9h8.4V231.6z"/>
			<path class="st1" d="M-291.2,233.6c0,5.7,0,9.7,0.1,11.8h-7.9c-0.2-1.2-0.3-3-0.4-4.8c-1.7,3.9-4.8,5.5-9.4,5.5
				c-5.5,0-10.3-2.6-10.3-12.3v-29.5h8.3v27.6c0,4.5,1.1,7,4.9,7c3.9,0,6.3-2.2,6.3-9.5v-25.1h8.3v29.3H-291.2z"/>
			<path class="st1" d="M-282.4,188.5h8.3v20.3c1.4-2.8,4.1-5.3,9.3-5.3c8.2,0,12,7.1,12,20.2c0,12.9-3.3,22.3-13.2,22.3
				c-5.3,0-7.3-2.6-8.4-5c0,1.1-0.1,2.9-0.2,4.3h-7.9c0.1-2.5,0.1-7,0.1-11.5L-282.4,188.5L-282.4,188.5z M-261.1,223.9
				c0-8.7-1.6-13.2-6.4-13.2c-5.2,0-6.9,4.1-6.9,14.3c0,9.7,1.4,14,6.5,14C-263.1,239-261.1,234.4-261.1,223.9z"/>
			<path class="st1" d="M-245.9,204.3h8.3v41.1h-8.3V204.3z M-245.9,188.5h8.3v9.1h-8.3V188.5z"/>
			<path class="st1" d="M-228.7,245.4v-56.9h8.3v56.9H-228.7z"/>
			<path class="st1" d="M-205.2,226.8c0,6.2,0.9,12.4,6.6,12.4c5.3,0,6-4.7,6.2-6.1h8c-0.1,1.2-1.1,13-14.3,13
				c-12.9,0-14.7-11.2-14.7-21.5c0-13,4.8-21.1,15-21.1c11.6,0,14.4,8.9,14.4,19.5c0,1.2-0.1,3-0.1,3.8L-205.2,226.8L-205.2,226.8z
				 M-192.3,220.7c0-5-0.8-10.3-6.2-10.3c-6.1,0-6.5,7.3-6.5,10.3H-192.3z"/>
			<path class="st1" d="M-171,226.8c0,6.2,0.9,12.4,6.6,12.4c5.3,0,6-4.7,6.2-6.1h8c-0.1,1.2-1.1,13-14.3,13
				c-12.9,0-14.7-11.2-14.7-21.5c0-13,4.8-21.1,15-21.1c11.6,0,14.4,8.9,14.4,19.5c0,1.2-0.1,3-0.1,3.8L-171,226.8L-171,226.8z
				 M-158.2,220.7c0-5-0.8-10.3-6.2-10.3c-6.1,0-6.5,7.3-6.5,10.3H-158.2z"/>
			<path class="st1" d="M-127.1,191h4.6v23.5h19.3V191h4.6v54.4h-4.6v-26.7h-19.3v26.7h-4.6V191z"/>
			<path class="st1" d="M-65.7,238.9c0,2.7,0.2,5.4,0.3,6.5h-4.1c-0.2-0.9-0.4-3.2-0.4-4.9c-1.5,3.6-4.6,5.6-9.7,5.6
				c-7.7,0-10.4-6-10.4-11.5c0-7,4.7-12.8,15.4-12.8c2.1,0,3.3,0,4.5,0.1v-5.7c0-3.4-0.7-7.9-6.7-7.9c-6.7,0-7,4.9-7.3,7.6h-4.4
				c0.2-5.7,2.9-11.5,11.8-11.5c7.5,0,11,3.7,11,11.1C-65.7,215.5-65.7,238.9-65.7,238.9z M-70,225.8c-1-0.2-2.2-0.2-4.4-0.2
				c-7.9,0-11.2,3.8-11.2,8.7c0,4.2,2.2,7.8,6.9,7.8c6.3,0,8.6-4.4,8.6-13.8L-70,225.8L-70,225.8z"/>
			<path class="st1" d="M-55.6,245.4v-57h4.5v57H-55.6z"/>
			<path class="st1" d="M-41.1,245.4v-57h4.5v57H-41.1z"/>
		</g>
	</g>
</g>
<g>
	<g>
		<path class="st1" d="M-419.4,62.5c11-3.9,19.3-11.4,25.7-21.6c7.7-12.7,16.5-25.3,26.1-37.8c9.4-11.8,21.7-22.4,37.5-31.6
			C-339-14.1-346.4-0.2-351.6,13c-3.6,9.2-7.7,17.1-12.1,23.3c-10.5,16.1-22.4,24.9-35.8,26.6C-409.4,63.8-416.4,63.7-419.4,62.5z"
			/>
		<path class="st2" d="M-358.9,41.2c4.9-5.2,9-12.1,12.3-20.9c14.2,10.7,20.4,26.6,21.3,46.1C-334.1,56-345.2,47.4-358.9,41.2z"/>
		<path class="st2" d="M-389.6,20.4c3.5-7,8.5-13.9,15.3-20.5c-12.6-13.5-21.8-27.2-1.4-42.8C-409.7-29.9-413.3-8.5-389.6,20.4z"/>
		<path class="st3" d="M-367.8-39.2c-9.4,5.2-13.1,12-8.9,21c0.1,0.1,0.1,0.2,0.2,0.4c3.6,6.3,8.4,6.2,14.3,1
			c11.5-10.5,22.2-17.8,32.1-21.2C-341.8-44.2-354.4-44.6-367.8-39.2z"/>
	</g>
	<g>
		<g>
			<g>
				<g>
					<path class="st1" d="M-294.9-4c0,6.7-1.6,11.2-9.7,11.2c-1.6,0-3-0.2-3.9-0.3v-6c0.7,0.1,1.6,0.2,2.6,0.2
						c3.2,0,3.7-1.5,3.7-4.6V-34h7.3V-4z"/>
					<path class="st1" d="M-266.9-2.5c0,4.5,0,7.5,0.1,9.1h-6.8c-0.2-0.9-0.2-2.3-0.3-3.4c-1.4,2.9-3.6,3.9-6.9,3.9
						c-4.4,0-7.8-2.2-7.8-9.3v-22.3h7.2v20.7c0,3.1,0.6,4.8,3.2,4.8c2.7,0,4.1-1.5,4.1-6.4v-19.1h7.2L-266.9-2.5L-266.9-2.5z"/>
					<path class="st1" d="M-260.6-36h7.2v14.7c1.1-1.9,3.1-3.6,6.9-3.6c6.4,0,9.1,5.6,9.1,15.2c0,9.8-2.4,16.9-10,16.9
						c-4,0-5.3-2-6.2-3.5c0,0.7-0.1,2.1-0.1,3h-6.8c0.1-2.1,0.1-5.6,0.1-8.7v-34H-260.6z M-244.7-9.6c0-6-0.9-9.3-4.4-9.3
						s-4.6,2.5-4.6,10.1c0,7.3,1,9.9,4.4,9.9C-246,1.1-244.7-2.1-244.7-9.6z"/>
					<path class="st1" d="M-232.7-24.4h7.2v31h-7.2V-24.4z M-232.6-36h7.2v7.1h-7.2V-36z"/>
					<path class="st1" d="M-219.1,6.6V-36h7.2V6.6H-219.1z"/>
					<path class="st1" d="M-199.9-7c0,3.9,0.5,8.3,4.5,8.3c3.6,0,4-3,4.2-4.1h6.9c-0.1,1-0.8,10-11.1,10c-10.1,0-11.5-8.5-11.5-16.3
						c0-9.8,3.7-15.9,11.6-15.9c9,0,11.2,6.7,11.2,14.8c0,1.1-0.1,2.5-0.1,3.1L-199.9-7L-199.9-7z M-191.3-12.2c0-3-0.4-6.9-4.2-6.9
						c-4.1,0-4.4,4.6-4.4,6.9C-199.9-12.2-191.3-12.2-191.3-12.2z"/>
					<path class="st1" d="M-173.6-7c0,3.9,0.5,8.3,4.5,8.3c3.6,0,4-3,4.2-4.1h6.9c-0.1,1-0.8,10-11.1,10c-10.1,0-11.5-8.5-11.5-16.3
						c0-9.8,3.7-15.9,11.6-15.9c9,0,11.2,6.7,11.2,14.8c0,1.1-0.1,2.5-0.1,3.1L-173.6-7L-173.6-7z M-165-12.2c0-3-0.4-6.9-4.2-6.9
						c-4.1,0-4.4,4.6-4.4,6.9C-173.6-12.2-165-12.2-165-12.2z"/>
					<path class="st1" d="M-141.5-34h7.3v16h9.8v-16h7.3V6.6h-7.3v-18.2h-9.8V6.6h-7.3V-34z"/>
					<path class="st1" d="M-90.1-0.1c0,1.5,0.1,5.4,0.2,6.8h-6.5c-0.1-0.6-0.3-2-0.3-2.9c-1.2,2-3.2,3.4-7,3.4c-6,0-8.3-4.8-8.3-9.2
						c0-6.4,4.4-10.2,12.2-10.2c1,0,1.8,0,2.5,0.1v-3.4c0-1.8-0.2-3.9-3.3-3.9c-3,0-3.3,2-3.5,4h-6.8c0.1-4.6,2.3-9.5,10.6-9.5
						c6.7,0,10.1,3,10.1,9v15.8H-90.1z M-97-7c-0.7-0.1-1.4-0.1-2.3-0.1c-4.1,0-5.6,1.9-5.6,4.4c0,1.9,0.9,4,3.6,4
						c3.7,0,4.3-2.7,4.3-7.3V-7z"/>
					<path class="st1" d="M-83.7,6.6V-36h7.2V6.6H-83.7z"/>
					<path class="st1" d="M-70.2,6.6V-36h7.2V6.6H-70.2z"/>
				</g>
			</g>
		</g>
		<g>
			<g>
				<g>
					<path class="st1" d="M-296.4,14.2h-12.5v-3.5h29v3.5h-12.5v38h-4V14.2z"/>
					<path class="st1" d="M-275.1,32.3c0-4.8-0.1-9-0.1-10.3h3.8c0.1,1.5,0.1,3.4,0.1,6.4c1.6-4.2,5.2-6.9,10-7v4.1
						c-7,0.4-9.9,5.1-9.9,11.4v15.3h-3.8V32.3H-275.1z"/>
					<path class="st1" d="M-234.1,43.8c0,3.6,0.1,7,0.1,8.4h-3.7c-0.2-0.8-0.2-2.9-0.2-5.2c-1.2,3.3-4.4,5.8-9.1,5.8
						c-4.2,0-9.2-1.7-9.2-10.3V22h3.8v19.6c0,4.2,1.3,7.7,6.4,7.7c4.7,0,8-3.2,8-10.4V22h3.9L-234.1,43.8L-234.1,43.8z"/>
					<path class="st1" d="M-224,43.7c0.7,3.8,3.5,5.9,7.4,5.9c4.7,0,6.4-2.7,6.4-5.5c0-3-2-4.7-7.3-6.1c-7.1-1.9-9.1-4.5-9.1-8.5
						c0-4.1,2.9-8.1,9.6-8.1c7,0,9.6,4,10.1,8.5h-3.8c-0.6-2.8-2-5.4-6.5-5.4c-3.9,0-5.6,1.9-5.6,4.7c0,2.5,1.1,3.9,6.5,5.3
						c7.5,2,9.9,4.5,9.9,9.3c0,5.4-4.2,8.9-10.4,8.9c-5.8,0-10.5-2.8-11.1-9.1L-224,43.7L-224,43.7z"/>
					<path class="st1" d="M-204,22h5.1v-9h3.8v9h6.4v3.3h-6.4v20.2c0,2.7,0.7,3.8,3.3,3.8c0.9,0,1.9-0.1,2.5-0.2v3
						c-1,0.4-2.6,0.5-3.6,0.5c-3.8,0-6-1.4-6-6.2V25.3h-5.1V22z"/>
				</g>
			</g>
		</g>
	</g>
</g>
<g>
	<path class="st4" d="M12.9,120.6c11-3.9,19.3-11.4,25.7-21.6c7.7-12.7,16.5-25.3,26.1-37.8c9.4-11.8,21.7-22.4,37.5-31.6
		C93.3,44,85.9,57.9,80.7,71.1c-3.6,9.2-7.7,17.1-12.1,23.3c-10.5,16.1-22.4,24.9-35.8,26.6C22.9,121.8,15.9,121.7,12.9,120.6z"/>
	<path class="st5" d="M73.5,99.2c4.9-5.2,9-12.1,12.3-20.9c14.2,10.7,20.4,26.6,21.3,46.1C98.2,114,87.2,105.5,73.5,99.2z"/>
	<path class="st5" d="M42.8,78.4c3.5-7,8.5-13.9,15.3-20.5c-12.6-13.5-21.8-27.2-1.4-42.8C22.6,28.1,19.1,49.5,42.8,78.4z"/>
	<path class="st6" d="M64.6,18.8c-9.4,5.2-13.1,12-8.9,21c0.1,0.1,0.1,0.2,0.2,0.4c3.6,6.3,8.4,6.2,14.3,1
		c11.5-10.5,22.2-17.9,32-21.2C90.5,13.8,78,13.4,64.6,18.8z"/>
</g>
</svg>
